<svg width="131" height="34" viewBox="0 0 131 34" fill="none" xmlns="http://www.w3.org/2000/svg">
<path d="M31.6393 3.97588C32.243 4.03352 32.8283 4.20087 33.3672 4.46882L33.5511 4.57092C34.1223 4.88801 34.6234 5.31581 35.0261 5.82954C35.4287 6.34326 35.7253 6.93308 35.8991 7.56533C36.0729 8.19757 36.1206 8.86027 36.0394 9.51571C35.9581 10.1712 35.7494 10.8068 35.4246 11.3863L35.4246 11.3863L29.2139 22.4691L18.2896 16.4044L18.2886 16.4039C17.7075 16.0817 17.199 15.645 16.7926 15.1201C16.3863 14.5951 16.0902 13.9922 15.9216 13.3468C15.7529 12.7015 15.715 12.0264 15.8104 11.3613C15.9057 10.6961 16.1324 10.0541 16.4776 9.47318C16.8228 8.89224 17.2794 8.38424 17.821 7.9795C18.3625 7.57476 18.9777 7.28169 19.6302 7.11779C20.2826 6.9539 20.9588 6.92261 21.6186 7.02552C22.2783 7.12843 22.9081 7.3634 23.4709 7.71606L25.5101 8.99387L26.599 6.8029C26.9043 6.18852 27.3299 5.64025 27.8505 5.19172C28.371 4.74317 28.9754 4.40391 29.627 4.19482C30.2785 3.98574 30.9632 3.91131 31.6393 3.97588Z" fill="black" stroke="black" stroke-width="4.39733"/>
<path d="M4.04831 24.5968C11.7003 33.3975 22.7518 31.5456 27.9989 22.2935C29.5175 19.9635 31.6333 15.3534 33.081 12.6455" stroke="black" stroke-width="6.90196" stroke-linecap="round"/>
<path d="M48.8744 8.09633C47.2261 19.7983 37.0308 24.5746 27.6973 19.8711C25.1825 18.7993 20.9471 16.1706 18.2886 14.7436" stroke="black" stroke-width="6.90196" stroke-linecap="round"/>
<path d="M30.6193 8.03083C30.2143 7.79732 29.7678 7.65134 29.3068 7.60175C28.8459 7.55215 28.3802 7.59998 27.938 7.74233C27.4958 7.88467 27.0863 8.11857 26.7343 8.42983C26.3824 8.74109 26.0953 9.12321 25.8906 9.55302C25.5041 9.30146 25.073 9.13248 24.6226 9.05605C24.1723 8.97962 23.7118 8.99729 23.2685 9.10801C22.8252 9.21874 22.4079 9.42027 22.0413 9.70073C21.6747 9.9812 21.3663 10.3349 21.1341 10.741C20.9019 11.147 20.7508 11.5973 20.6896 12.0651C20.6284 12.5329 20.6583 13.0088 20.7777 13.4647C20.897 13.9207 21.1034 14.3474 21.3845 14.7198C21.6657 15.0921 22.0159 15.4026 22.4147 15.6328L28.2074 18.9813C28.2936 19.0311 28.3953 19.0435 28.4902 19.0157C28.5851 18.9879 28.6654 18.9222 28.7134 18.8331L31.9392 12.8434C32.1575 12.4382 32.2964 11.9922 32.348 11.5311C32.3997 11.07 32.3631 10.6027 32.2403 10.1559C32.1174 9.70912 31.9108 9.2916 31.6322 8.92719C31.3537 8.56278 31.0085 8.25861 30.6166 8.03204L30.6193 8.03083Z" fill="white"/>
<path d="M71.5092 12.5655H65.2362V16.5866H70.4798C70.9659 16.5866 71.3269 16.6974 71.5628 16.919C71.8059 17.1335 71.9274 17.423 71.9274 17.7876C71.9274 18.1522 71.8059 18.4417 71.5628 18.6562C71.3198 18.8706 70.9588 18.9779 70.4798 18.9779H65.2362V24.1571C65.2362 24.8148 65.0861 25.3045 64.7859 25.6262C64.4928 25.9407 64.1139 26.098 63.6492 26.098C63.1774 26.098 62.7914 25.9371 62.4911 25.6154C62.198 25.2937 62.0515 24.8076 62.0515 24.1571V12.0615C62.0515 11.604 62.1194 11.2323 62.2552 10.9463C62.3911 10.6532 62.6019 10.4423 62.8879 10.3137C63.181 10.1778 63.5527 10.1099 64.0031 10.1099H71.5092C72.0168 10.1099 72.3921 10.2243 72.6351 10.4531C72.8853 10.6747 73.0104 10.9678 73.0104 11.3323C73.0104 11.7041 72.8853 12.0043 72.6351 12.2331C72.3921 12.4547 72.0168 12.5655 71.5092 12.5655ZM78.8408 11.772V23.2135H85.296C85.8107 23.2135 86.2039 23.3386 86.4756 23.5888C86.7544 23.839 86.8938 24.1535 86.8938 24.5324C86.8938 24.9184 86.7579 25.233 86.4863 25.476C86.2146 25.7119 85.8179 25.8299 85.296 25.8299H77.6076C76.9142 25.8299 76.4138 25.6762 76.1064 25.3688C75.8062 25.0614 75.656 24.5646 75.656 23.8783V11.772C75.656 11.1286 75.799 10.6461 76.085 10.3244C76.378 10.0027 76.7605 9.84184 77.2323 9.84184C77.7113 9.84184 78.0973 10.0027 78.3904 10.3244C78.6906 10.6389 78.8408 11.1215 78.8408 11.772ZM88.2526 19.3317V11.772C88.2526 11.1286 88.3956 10.6461 88.6815 10.3244C88.9746 10.0027 89.3571 9.84184 89.8289 9.84184C90.3221 9.84184 90.7117 10.0027 90.9977 10.3244C91.2908 10.6461 91.4373 11.1286 91.4373 11.772V19.5033C91.4373 20.3826 91.5338 21.1189 91.7269 21.7122C91.927 22.2984 92.2773 22.756 92.7777 23.0848C93.2781 23.4065 93.9787 23.5673 94.8794 23.5673C96.1233 23.5673 97.0026 23.2385 97.5173 22.5808C98.032 21.916 98.2894 20.9116 98.2894 19.5676V11.772C98.2894 11.1215 98.4323 10.6389 98.7183 10.3244C99.0042 10.0027 99.3867 9.84184 99.8656 9.84184C100.345 9.84184 100.731 10.0027 101.024 10.3244C101.324 10.6389 101.474 11.1215 101.474 11.772V19.3317C101.474 20.5613 101.353 21.5871 101.11 22.4092C100.874 23.2313 100.423 23.9534 99.7584 24.5753C99.1865 25.1043 98.5217 25.4903 97.7639 25.7334C97.0062 25.9764 96.1197 26.098 95.1046 26.098C93.8965 26.098 92.8564 25.9693 91.9842 25.7119C91.1121 25.4474 90.4008 25.0435 89.8503 24.5002C89.2999 23.9498 88.896 23.2492 88.6386 22.3985C88.3813 21.5407 88.2526 20.5184 88.2526 19.3317ZM114.639 12.5655H108.366V16.5866H113.61C114.096 16.5866 114.457 16.6974 114.693 16.919C114.936 17.1335 115.057 17.423 115.057 17.7876C115.057 18.1522 114.936 18.4417 114.693 18.6562C114.45 18.8706 114.089 18.9779 113.61 18.9779H108.366V24.1571C108.366 24.8148 108.216 25.3045 107.916 25.6262C107.623 25.9407 107.244 26.098 106.779 26.098C106.307 26.098 105.921 25.9371 105.621 25.6154C105.328 25.2937 105.181 24.8076 105.181 24.1571V12.0615C105.181 11.604 105.249 11.2323 105.385 10.9463C105.521 10.6532 105.732 10.4423 106.018 10.3137C106.311 10.1778 106.682 10.1099 107.133 10.1099H114.639C115.147 10.1099 115.522 10.2243 115.765 10.4531C116.015 10.6747 116.14 10.9678 116.14 11.3323C116.14 11.7041 116.015 12.0043 115.765 12.2331C115.522 12.4547 115.147 12.5655 114.639 12.5655ZM128.244 12.5655H121.971V16.5866H127.214C127.7 16.5866 128.061 16.6974 128.297 16.919C128.54 17.1335 128.662 17.423 128.662 17.7876C128.662 18.1522 128.54 18.4417 128.297 18.6562C128.054 18.8706 127.693 18.9779 127.214 18.9779H121.971V24.1571C121.971 24.8148 121.82 25.3045 121.52 25.6262C121.227 25.9407 120.848 26.098 120.384 26.098C119.912 26.098 119.526 25.9371 119.225 25.6154C118.932 25.2937 118.786 24.8076 118.786 24.1571V12.0615C118.786 11.604 118.854 11.2323 118.99 10.9463C119.125 10.6532 119.336 10.4423 119.622 10.3137C119.915 10.1778 120.287 10.1099 120.737 10.1099H128.244C128.751 10.1099 129.126 10.2243 129.369 10.4531C129.62 10.6747 129.745 10.9678 129.745 11.3323C129.745 11.7041 129.62 12.0043 129.369 12.2331C129.126 12.4547 128.751 12.5655 128.244 12.5655Z" fill="black"/>
</svg>
