<svg width="32" height="32" viewBox="0 0 32 32" fill="none" xmlns="http://www.w3.org/2000/svg">
<rect width="32" height="32" rx="16" fill="white"/>
<path d="M23.5469 8.06864C23.268 7.95315 22.9406 7.98542 22.7 8.15254L19.0898 10.6644C18.4633 10.4321 17.3117 10.087 16 10.087C14.6883 10.087 13.5367 10.4321 12.9102 10.6644L9.3 8.15254C9.05938 7.98542 8.72891 7.95281 8.45313 8.06864C8.17656 8.18447 8 8.42835 8 8.69568V17.0435C8 20.8794 11.5891 24 16 24C20.4109 24 24 20.8794 24 17.0435V8.69568C24 8.42835 23.8234 8.18447 23.5469 8.06864ZM11.2 15.3044C11.2 14.7281 11.7373 14.2609 12.4 14.2609C13.0627 14.2609 13.6 14.7281 13.6 15.3044C13.6 15.8807 13.0627 16.3478 12.4 16.3478C11.7373 16.3478 11.2 15.8807 11.2 15.3044ZM19.6758 20.7334C19.1891 21.0499 18.6102 21.2174 18 21.2174C17.2136 21.2174 16.5087 20.9336 16 20.4765C15.4913 20.9336 14.7864 21.2174 14 21.2174C13.3898 21.2174 12.8109 21.0499 12.3242 20.7334C11.9703 20.5031 11.8977 20.0673 12.1625 19.7595C12.4266 19.4518 12.9281 19.3886 13.282 19.6192C13.4906 19.7544 13.7383 19.8261 14 19.8261C14.4508 19.8261 14.8428 19.6115 15.0458 19.2848L14.2438 18.5873C13.9453 18.3271 13.857 17.9402 14.0188 17.6012C14.1805 17.2626 14.5578 17.0435 14.9797 17.0435H17.0203C17.4422 17.0435 17.8195 17.2626 17.9813 17.6012C18.143 17.9402 18.0547 18.3271 17.757 18.5866L16.9541 19.2846C17.1571 19.6114 17.5491 19.8261 18 19.8261C18.2617 19.8261 18.5094 19.7544 18.718 19.6192C19.0719 19.3886 19.5734 19.4518 19.8375 19.7595C20.1023 20.0673 20.0297 20.5031 19.6758 20.7334ZM19.6 16.3478C18.9373 16.3478 18.4 15.8807 18.4 15.3044C18.4 14.7281 18.9373 14.2609 19.6 14.2609C20.2627 14.2609 20.8 14.7281 20.8 15.3044C20.8 15.8807 20.2627 16.3478 19.6 16.3478Z" fill="#DB2877"/>
</svg>
