<svg width="32" height="32" viewBox="0 0 32 32" fill="none" xmlns="http://www.w3.org/2000/svg">
<rect width="32" height="32" rx="16" fill="white"/>
<path d="M17.7391 10.7827H14.2609C11.7675 10.7827 9.73914 12.8112 9.73914 15.3045V19.4784C9.73914 20.7698 10.4037 21.9723 11.4783 22.6759V23.3045C11.4783 23.4967 11.634 23.6523 11.8261 23.6523H13.2174C13.67 23.6523 14.0886 23.5825 14.4634 23.4541C14.8964 23.8075 15.4338 24.0001 16 24.0001C16.5664 24.0001 17.1038 23.8076 17.5366 23.4541C17.9114 23.5825 18.33 23.6523 18.7826 23.6523H20.1739C20.366 23.6523 20.5217 23.4967 20.5217 23.3045V22.6758C21.5963 21.9724 22.2609 20.7697 22.2609 19.4784V15.3045C22.2609 12.8112 20.2325 10.7827 17.7391 10.7827ZM12.8696 14.6088C13.2538 14.6088 13.5652 14.9202 13.5652 15.3045C13.5652 15.6886 13.2538 16.0001 12.8696 16.0001C12.4854 16.0001 12.1739 15.6886 12.1739 15.3045C12.1739 14.9202 12.4854 14.6088 12.8696 14.6088ZM15.6522 20.8697C15.6522 22.3112 14.4294 22.9566 13.2174 22.9566H12.1739V20.174C12.1739 19.2151 12.9541 18.4349 13.913 18.4349H14.2621C14.2619 18.6562 14.3305 18.8757 14.4696 19.0609L15.1651 19.9882C15.291 20.1563 15.4617 20.2725 15.6522 20.3399C15.6522 20.5283 15.6522 20.6764 15.6522 20.8697ZM15.7216 19.5711L15.026 18.6438C14.9453 18.5361 14.9331 18.3999 14.9932 18.2793C15.0535 18.1591 15.1698 18.0871 15.3044 18.0871H16.6957C16.8302 18.0871 16.9465 18.1591 17.0068 18.2793C17.0669 18.3999 17.0547 18.5361 16.974 18.6434L16.2782 19.5711C16.1457 19.7477 15.8545 19.7477 15.7216 19.5711ZM19.8261 22.9566H18.7826C17.5707 22.9566 16.3478 22.3112 16.3478 20.8697C16.3478 20.6853 16.3478 20.5243 16.3478 20.3399C16.5383 20.2725 16.7089 20.1563 16.8348 19.9882L17.5304 19.0609C17.6695 18.8757 17.7382 18.6562 17.7379 18.4349H18.087C19.0459 18.4349 19.8261 19.2151 19.8261 20.174V22.9566ZM19.1304 16.0001C18.7462 16.0001 18.4348 15.6886 18.4348 15.3045C18.4348 14.9202 18.7462 14.6088 19.1304 14.6088C19.5147 14.6088 19.8261 14.9202 19.8261 15.3045C19.8261 15.6886 19.5147 16.0001 19.1304 16.0001Z" fill="#D97708"/>
<path d="M9.04348 15.3043C9.04348 12.9204 10.6523 10.9096 12.8399 10.2887C11.801 8.87477 10.1299 8 8.34783 8C8.15574 8 8 8.15557 8 8.34783V13.913C8 14.6835 8.42073 15.3561 9.04348 15.7176V15.3043Z" fill="#D97708"/>
<path d="M23.6522 8C21.8701 8 20.199 8.87477 19.1601 10.2887C21.3477 10.9096 22.9565 12.9204 22.9565 15.3043V15.7176C23.5793 15.3561 24 14.6835 24 13.913V8.34783C24 8.15557 23.8443 8 23.6522 8Z" fill="#D97708"/>
</svg>
