<svg width="32" height="32" viewBox="0 0 32 32" fill="none" xmlns="http://www.w3.org/2000/svg">
<rect width="32" height="32" rx="16" fill="white"/>
<path d="M17.7391 10.7826H14.2609C11.7675 10.7826 9.73913 12.8111 9.73913 15.3043V19.4782C9.73913 20.7697 10.4037 21.9722 11.4783 22.6757V23.3043C11.4783 23.4966 11.634 23.6522 11.8261 23.6522H13.2174C13.67 23.6522 14.0886 23.5824 14.4634 23.454C14.8964 23.8074 15.4338 24 16 24C16.5664 24 17.1037 23.8075 17.5366 23.454C17.9114 23.5824 18.3299 23.6522 18.7826 23.6522H20.1739C20.366 23.6522 20.5217 23.4966 20.5217 23.3043V22.6757C21.5963 21.9723 22.2609 20.7695 22.2609 19.4782V15.3043C22.2609 12.8111 20.2325 10.7826 17.7391 10.7826ZM12.8696 14.6087C13.2538 14.6087 13.5652 14.9201 13.5652 15.3043C13.5652 15.6885 13.2538 16 12.8696 16C12.4854 16 12.1739 15.6885 12.1739 15.3043C12.1739 14.9201 12.4854 14.6087 12.8696 14.6087ZM15.6522 20.8695C15.6522 22.3111 14.4293 22.9565 13.2174 22.9565H12.1739V20.1739C12.1739 19.215 12.9541 18.4348 13.913 18.4348H14.2621C14.2618 18.6561 14.3305 18.8756 14.4696 19.0608L15.1651 19.9881C15.291 20.1561 15.4617 20.2724 15.6522 20.3398C15.6522 20.5282 15.6522 20.6763 15.6522 20.8695ZM15.7216 19.571L15.026 18.6437C14.9453 18.536 14.9331 18.3998 14.9932 18.2792C15.0535 18.159 15.1698 18.0869 15.3043 18.0869H16.6957C16.8302 18.0869 16.9465 18.159 17.0068 18.2792C17.0669 18.3998 17.0547 18.536 16.974 18.6433L16.2782 19.571C16.1457 19.7476 15.8544 19.7476 15.7216 19.571ZM19.8261 22.9565H18.7826C17.5706 22.9565 16.3478 22.3111 16.3478 20.8695C16.3478 20.6851 16.3478 20.5242 16.3478 20.3398C16.5383 20.2723 16.7089 20.1562 16.8347 19.9881L17.5304 19.0608C17.6695 18.8756 17.7382 18.6561 17.7379 18.4348H18.087C19.0459 18.4348 19.8261 19.215 19.8261 20.1739V22.9565ZM19.1304 16C18.7462 16 18.4348 15.6885 18.4348 15.3043C18.4348 14.9201 18.7462 14.6087 19.1304 14.6087C19.5146 14.6087 19.8261 14.9201 19.8261 15.3043C19.8261 15.6885 19.5146 16 19.1304 16Z" fill="#B4540A"/>
<path d="M9.04348 15.3043C9.04348 12.9204 10.6523 10.9096 12.8399 10.2887C11.801 8.87477 10.1299 8 8.34783 8C8.15574 8 8 8.15557 8 8.34783V13.913C8 14.6835 8.42073 15.3561 9.04348 15.7176V15.3043Z" fill="#B4540A"/>
<path d="M23.6522 8C21.8701 8 20.199 8.87477 19.1601 10.2887C21.3477 10.9096 22.9565 12.9204 22.9565 15.3043V15.7176C23.5793 15.3561 24 14.6835 24 13.913V8.34783C24 8.15557 23.8443 8 23.6522 8Z" fill="#B4540A"/>
</svg>
