<svg width="32" height="32" viewBox="0 0 32 32" fill="none" xmlns="http://www.w3.org/2000/svg">
<rect x="0.25" y="0.25" width="31.5" height="31.5" rx="15.75" fill="white"/>
<path d="M16.0023 8.99999C13.08 8.99999 12.225 9.00299 12.059 9.01666C11.5802 9.03583 11.1106 9.15398 10.6797 9.36366C10.3784 9.51011 10.1059 9.70963 9.87534 9.95266C9.42927 10.4185 9.14493 11.0154 9.06434 11.6553C9.017 11.983 9.00334 12.0497 9.00034 13.722C9.00034 14.2797 9.00034 15.0133 9.00034 15.9973C9.00034 18.918 9.00367 19.7723 9.01767 19.938C9.03749 20.4066 9.15082 20.8665 9.351 21.2907C9.53789 21.6736 9.80552 22.0114 10.1355 22.281C10.4654 22.5506 10.8499 22.7455 11.2623 22.8523C11.5956 22.9317 11.9362 22.9764 12.2787 22.9857C12.452 22.9933 14.219 22.9987 15.987 22.9987C17.755 22.9987 19.523 22.9967 19.692 22.988C20.047 22.9813 20.4002 22.935 20.745 22.85C21.1583 22.744 21.5435 22.549 21.8736 22.2787C22.2038 22.0084 22.4709 21.6693 22.6563 21.285C22.8534 20.8692 22.9656 20.4183 22.9863 19.9587C22.9957 19.838 22.9997 17.9147 22.9997 15.994C22.9997 14.0733 22.9953 12.1533 22.986 12.0327C22.9658 11.5679 22.8513 11.1121 22.6493 10.693C22.5015 10.3847 22.2981 10.1064 22.0493 9.87199C21.5822 9.42722 20.9849 9.14371 20.345 9.06299C20.018 9.01566 19.953 9.00166 18.2783 8.99866L16.0023 8.99999Z" fill="#7C3AED"/>
<path d="M16.0023 8.99999C13.08 8.99999 12.225 9.00299 12.059 9.01666C11.5802 9.03583 11.1106 9.15398 10.6797 9.36366C10.3784 9.51011 10.1059 9.70963 9.87534 9.95266C9.42927 10.4185 9.14493 11.0154 9.06434 11.6553C9.017 11.983 9.00334 12.0497 9.00034 13.722C9.00034 14.2797 9.00034 15.0133 9.00034 15.9973C9.00034 18.918 9.00367 19.7723 9.01767 19.938C9.03749 20.4066 9.15082 20.8665 9.351 21.2907C9.53789 21.6736 9.80552 22.0114 10.1355 22.281C10.4654 22.5506 10.8499 22.7455 11.2623 22.8523C11.5956 22.9317 11.9362 22.9764 12.2787 22.9857C12.452 22.9933 14.219 22.9987 15.987 22.9987C17.755 22.9987 19.523 22.9967 19.692 22.988C20.047 22.9813 20.4002 22.935 20.745 22.85C21.1583 22.744 21.5435 22.549 21.8736 22.2787C22.2038 22.0084 22.4709 21.6693 22.6563 21.285C22.8534 20.8692 22.9656 20.4183 22.9863 19.9587C22.9957 19.838 22.9997 17.9147 22.9997 15.994C22.9997 14.0733 22.9953 12.1533 22.986 12.0327C22.9658 11.5679 22.8513 11.1121 22.6493 10.693C22.5015 10.3847 22.2981 10.1064 22.0493 9.87199C21.5822 9.42722 20.9849 9.14371 20.345 9.06299C20.018 9.01566 19.953 9.00166 18.2783 8.99866L16.0023 8.99999Z" fill="#7C3AED"/>
<path d="M16 10.831C14.5963 10.831 14.4203 10.837 13.869 10.862C13.4403 10.8706 13.0162 10.9518 12.6147 11.1023C12.2712 11.235 11.9593 11.4381 11.6989 11.6984C11.4386 11.9587 11.2355 12.2706 11.1027 12.614C10.9519 13.0157 10.8706 13.4401 10.8623 13.869C10.8377 14.4203 10.8313 14.5967 10.8313 16.0023C10.8313 17.408 10.8377 17.582 10.8627 18.1333C10.8713 18.5621 10.9524 18.9863 11.1027 19.388C11.2353 19.7312 11.4382 20.043 11.6983 20.3034C11.9583 20.5637 12.2699 20.767 12.613 20.9C13.0147 21.0502 13.4389 21.1314 13.8677 21.14C14.419 21.165 14.595 21.1713 15.9983 21.1713C17.4017 21.1713 17.5777 21.165 18.129 21.14C18.5579 21.1313 18.9822 21.0502 19.384 20.9C19.7272 20.7669 20.0389 20.5636 20.2991 20.3032C20.5594 20.0428 20.7624 19.731 20.8953 19.3877C21.045 18.9857 21.1262 18.5615 21.1357 18.1327C21.1603 17.5813 21.1667 17.4057 21.1667 16.0017C21.1667 14.5977 21.1603 14.4213 21.1357 13.87C21.1263 13.4413 21.045 13.0172 20.8953 12.6153C20.7626 12.2719 20.5596 11.96 20.2993 11.6996C20.0389 11.4392 19.7271 11.2361 19.3837 11.1033C18.9818 10.953 18.5573 10.8717 18.1283 10.863C17.577 10.838 17.4013 10.832 15.9973 10.832L16 10.831ZM15.5363 11.7643H16C17.38 11.7643 17.5437 11.769 18.0883 11.794C18.4161 11.7979 18.7407 11.8581 19.048 11.972C19.2708 12.0581 19.4732 12.1898 19.6421 12.3588C19.811 12.5277 19.9427 12.7301 20.0287 12.953C20.1425 13.2603 20.2027 13.5849 20.2067 13.9127C20.2313 14.4577 20.237 14.6213 20.237 16.001C20.237 17.3807 20.2313 17.5443 20.2067 18.0893C20.2027 18.417 20.1425 18.7417 20.0287 19.049C19.9426 19.2718 19.8109 19.4741 19.642 19.643C19.4731 19.8119 19.2708 19.9436 19.048 20.0297C18.7407 20.1437 18.4161 20.2039 18.0883 20.2077C17.5437 20.2323 17.38 20.2377 16 20.2377C14.62 20.2377 14.4563 20.2323 13.9117 20.2077C13.5839 20.2036 13.2593 20.1433 12.952 20.0293C12.7291 19.9433 12.5267 19.8116 12.3578 19.6428C12.1888 19.4739 12.0571 19.2715 11.971 19.0487C11.8568 18.7414 11.7966 18.4167 11.793 18.089C11.768 17.544 11.763 17.3803 11.763 15.9997C11.763 14.619 11.768 14.4563 11.793 13.9113C11.7968 13.5836 11.857 13.259 11.971 12.9517C12.0569 12.7286 12.1886 12.5261 12.3576 12.3571C12.5265 12.1881 12.729 12.0563 12.952 11.9703C13.2592 11.856 13.5839 11.7956 13.9117 11.792C14.3883 11.7703 14.5733 11.764 15.5363 11.763V11.7643ZM18.7587 12.6227C18.636 12.6227 18.516 12.6591 18.414 12.7272C18.312 12.7954 18.2325 12.8923 18.1855 13.0057C18.1386 13.119 18.1263 13.2438 18.1503 13.3641C18.1742 13.4845 18.2333 13.595 18.3201 13.6818C18.4069 13.7685 18.5175 13.8275 18.6378 13.8514C18.7582 13.8753 18.8829 13.863 18.9963 13.816C19.1096 13.769 19.2065 13.6894 19.2746 13.5874C19.3427 13.4853 19.3791 13.3654 19.379 13.2427C19.379 13.1612 19.3629 13.0806 19.3318 13.0053C19.3006 12.9301 19.2549 12.8617 19.1973 12.8041C19.1397 12.7466 19.0713 12.7009 18.996 12.6698C18.9208 12.6386 18.8401 12.6226 18.7587 12.6227ZM16 13.3457C15.4749 13.3453 14.9614 13.5006 14.5246 13.7921C14.0877 14.0836 13.7472 14.4981 13.5459 14.9831C13.3447 15.4682 13.2919 16.002 13.3941 16.5171C13.4964 17.0322 13.7491 17.5054 14.1203 17.8769C14.4915 18.2483 14.9645 18.5013 15.4796 18.6039C15.9946 18.7064 16.5285 18.6539 17.0137 18.453C17.4988 18.2521 17.9135 17.9118 18.2053 17.4751C18.497 17.0385 18.6527 16.5251 18.6527 16C18.6526 15.2963 18.3731 14.6215 17.8757 14.1238C17.3783 13.6261 16.7037 13.3462 16 13.3457ZM16 14.279C16.3409 14.2791 16.6742 14.3802 16.9576 14.5698C17.241 14.7593 17.4618 15.0286 17.5921 15.3436C17.7224 15.6586 17.7564 16.0053 17.6897 16.3396C17.6229 16.6739 17.4586 16.981 17.2173 17.2219C16.976 17.4627 16.6688 17.6267 16.3343 17.6929C15.9999 17.7591 15.6533 17.7246 15.3385 17.5938C15.0236 17.463 14.7547 17.2417 14.5656 16.958C14.3765 16.6743 14.2759 16.3409 14.2763 16C14.2764 15.7737 14.321 15.5496 14.4076 15.3406C14.4943 15.1315 14.6213 14.9416 14.7813 14.7816C14.9414 14.6217 15.1314 14.4948 15.3405 14.4083C15.5496 14.3217 15.7737 14.2772 16 14.2773V14.279Z" fill="white"/>
<rect x="0.25" y="0.25" width="31.5" height="31.5" rx="15.75" stroke="#7C3AED" stroke-width="0.5"/>
</svg>
