<svg width="32" height="32" viewBox="0 0 32 32" fill="none" xmlns="http://www.w3.org/2000/svg">
<rect x="0.25" y="0.25" width="31.5" height="31.5" rx="15.75" fill="white"/>
<path d="M15 23.5C15.0663 23.5 15.1299 23.4736 15.1768 23.4268C16.0058 22.5794 16.7878 21.6874 17.5192 20.7545L17.1882 20.412C16.7475 19.9484 16.5017 19.3331 16.5017 18.6934C16.5017 18.0536 16.7475 17.4384 17.1882 16.9747C17.4075 16.7453 17.6711 16.5627 17.963 16.4381C18.2549 16.3135 18.5691 16.2495 18.8865 16.25C18.962 16.25 19.0379 16.2537 19.1143 16.261C19.4707 16.2982 19.8139 16.4162 20.1178 16.6062C20.4996 15.797 20.7146 14.9191 20.75 14.025C20.75 10.4097 17.8265 8.25 15 8.25C12.1735 8.25 9.25 10.4097 9.25 14.025C9.25 17.81 14.5957 23.2 14.8232 23.4268C14.8701 23.4736 14.9337 23.5 15 23.5ZM13 14C13 13.6044 13.1173 13.2178 13.3371 12.8889C13.5568 12.56 13.8692 12.3036 14.2346 12.1522C14.6001 12.0009 15.0022 11.9613 15.3902 12.0384C15.7781 12.1156 16.1345 12.3061 16.4142 12.5858C16.6939 12.8655 16.8844 13.2219 16.9616 13.6098C17.0387 13.9978 16.9991 14.3999 16.8478 14.7654C16.6964 15.1308 16.44 15.4432 16.1111 15.6629C15.7822 15.8827 15.3956 16 15 16C14.4696 16 13.9609 15.7893 13.5858 15.4142C13.2107 15.0391 13 14.5304 13 14Z" fill="#212121"/>
<path d="M20.2483 22.75C20.2817 22.7501 20.3149 22.7436 20.3457 22.7307C20.3766 22.7178 20.4046 22.6989 20.428 22.675L22.95 20.0647C23.3018 19.6949 23.498 19.2039 23.498 18.6935C23.498 18.183 23.3018 17.6921 22.95 17.3222C22.7752 17.1392 22.5646 16.994 22.3313 16.8956C22.098 16.7973 21.8471 16.7479 21.5939 16.7505C21.3408 16.7531 21.0909 16.8077 20.8597 16.9109C20.6285 17.014 20.421 17.1636 20.25 17.3502C20.079 17.1636 19.8715 17.014 19.6403 16.9108C19.4091 16.8076 19.1592 16.753 18.9061 16.7504C18.6529 16.7478 18.4019 16.7972 18.1687 16.8955C17.9354 16.9939 17.7248 17.1391 17.55 17.3222C17.1982 17.6921 17.002 18.183 17.002 18.6935C17.002 19.2039 17.1982 19.6949 17.55 20.0647L20.0685 22.675C20.0919 22.6989 20.1199 22.7178 20.1508 22.7307C20.1816 22.7436 20.2148 22.7501 20.2483 22.75Z" fill="#212121"/>
<rect x="0.25" y="0.25" width="31.5" height="31.5" rx="15.75" stroke="#212121" stroke-width="0.5"/>
</svg>
