<svg width="32" height="32" viewBox="0 0 32 32" fill="none" xmlns="http://www.w3.org/2000/svg">
<rect x="0.25" y="0.25" width="31.5" height="31.5" rx="15.75" fill="white"/>
<path d="M21.3333 18.3333C20.5 18.3333 19.7 18.2 18.9533 17.9533C18.8361 17.916 18.711 17.9112 18.5912 17.9393C18.4715 17.9675 18.3616 18.0276 18.2733 18.1133L16.8067 19.58C14.9141 18.6175 13.3759 17.0792 12.4133 15.1867L13.88 13.7133C13.9683 13.6296 14.0309 13.5223 14.0604 13.4043C14.0899 13.2862 14.0852 13.1621 14.0467 13.0467C13.7938 12.2787 13.6655 11.4752 13.6667 10.6667C13.6667 10.3 13.3667 10 13 10H10.6667C10.3 10 10 10.3 10 10.6667C10 16.9267 15.0733 22 21.3333 22C21.7 22 22 21.7 22 21.3333V19C22 18.6333 21.7 18.3333 21.3333 18.3333ZM20.6667 16H22C22 14.4087 21.3679 12.8826 20.2426 11.7574C19.1174 10.6321 17.5913 10 16 10V11.3333C18.58 11.3333 20.6667 13.42 20.6667 16ZM18 16H19.3333C19.3333 14.16 17.84 12.6667 16 12.6667V14C17.1067 14 18 14.8933 18 16Z" fill="#212121"/>
<rect x="0.25" y="0.25" width="31.5" height="31.5" rx="15.75" stroke="#212121" stroke-width="0.5"/>
</svg>
