<svg width="32" height="32" viewBox="0 0 32 32" fill="none" xmlns="http://www.w3.org/2000/svg">
<rect width="32" height="32" rx="16" fill="white"/>
<g clip-path="url(#clip0_65_3047)">
<path d="M22.6667 14.6667H17.3333V9.33333C17.3333 8.596 16.7373 8 16 8C15.2627 8 14.6667 8.596 14.6667 9.33333V14.6667H9.33333C8.596 14.6667 8 15.2627 8 16C8 16.7373 8.596 17.3333 9.33333 17.3333H14.6667V22.6667C14.6667 23.404 15.2627 24 16 24C16.7373 24 17.3333 23.404 17.3333 22.6667V17.3333H22.6667C23.404 17.3333 24 16.7373 24 16C24 15.2627 23.404 14.6667 22.6667 14.6667Z" fill="#7C3AED"/>
</g>
<defs>
<clipPath id="clip0_65_3047">
<rect width="16" height="16" fill="white" transform="translate(8 8)"/>
</clipPath>
</defs>
</svg>
