<svg width="32" height="32" viewBox="0 0 32 32" fill="none" xmlns="http://www.w3.org/2000/svg">
<path fill-rule="evenodd" clip-rule="evenodd" d="M13.747 0.261936C13.2771 0.46685 13.1928 0.546538 13.3855 0.58069C13.5904 0.626226 13.5783 0.648997 13.2892 0.728685L12.9398 0.819757L13.012 2.17446C13.0482 2.91443 13.1084 3.56333 13.1325 3.62025C13.1687 3.66578 13.2048 4.03008 13.2169 4.4399C13.2289 4.83835 13.3133 5.41894 13.4096 5.73769C13.6506 6.60288 13.4699 7.60468 13 8.06005C12.8675 8.17389 12.8675 8.24219 12.9639 8.29912C13.0602 8.35604 13.0482 8.43572 12.9036 8.57233C12.7952 8.67479 12.6747 8.76586 12.6265 8.76586C12.4458 8.80002 8.38554 8.8797 5.01205 8.91386C0.831322 8.95939 1.15662 8.94801 1.15662 9.13015C1.15662 9.20984 0.891565 9.39199 0.578312 9.5286C0.19277 9.69936 0 9.85874 0 10.0067C0 10.1206 0.0481913 10.1889 0.0963841 10.1661C0.144577 10.132 0.192768 10.1889 0.192768 10.2799C0.192768 10.371 0.14458 10.4735 0.0843388 10.5076C0.0240979 10.5418 0.0120467 10.815 0.0361431 11.111C0.0843359 11.5208 0.19277 11.7371 0.45783 11.9762C0.650601 12.1469 0.855419 12.2608 0.91566 12.2266C0.963853 12.1925 1.03614 12.2835 1.07228 12.4202C1.14457 12.6478 1.15662 12.6478 1.43373 12.4771C1.72289 12.2949 1.87952 12.3291 1.87952 12.5454C1.87952 12.6023 1.79518 12.6251 1.69879 12.5795C1.59036 12.5454 1.51807 12.5795 1.51807 12.682C1.51807 12.8869 2.07229 13.2398 2.24096 13.1374C2.3012 13.1032 2.36144 13.1374 2.36144 13.2398C2.36144 13.3309 2.59036 13.57 2.87951 13.7749C3.15662 13.9912 3.40964 14.1847 3.44578 14.2188C3.6747 14.4465 4.77108 15.2434 4.85542 15.2434C4.91566 15.2434 5.27711 15.528 5.66265 15.8809C6.06024 16.2338 6.44579 16.4843 6.53012 16.4501C6.62651 16.416 6.69879 16.4615 6.69879 16.5526C6.69879 16.7347 7.39759 17.2356 7.50602 17.1332C7.54217 17.099 7.50602 16.9966 7.42168 16.8941C7.3253 16.7803 7.31325 16.7234 7.40964 16.7234C7.48193 16.7234 7.57832 16.86 7.61446 17.0307C7.66265 17.2129 7.96385 17.5885 8.28916 17.8731C8.81928 18.3285 8.86747 18.4082 8.6988 18.5334C8.59036 18.6245 8.50602 18.7497 8.50602 18.818C8.50602 18.8863 8.56626 18.8636 8.6265 18.7725C8.68674 18.6814 8.74699 18.6586 8.74699 18.7156C8.74699 18.7839 8.62651 18.9319 8.49398 19.0457C8.27711 19.2165 8.26506 19.2734 8.39759 19.3531C8.51807 19.4214 8.51807 19.4555 8.42168 19.4555C8.33735 19.4555 8.26506 19.5238 8.26506 19.6035C8.26506 19.6946 8.18072 19.9223 8.08434 20.1158C7.9759 20.3093 7.86747 20.5826 7.84337 20.7078C7.75903 21.1518 7.6506 21.3908 7.54217 21.3908C7.49397 21.3908 7.46988 21.4933 7.50602 21.6185C7.54217 21.7437 7.50603 21.8462 7.43374 21.8462C7.36145 21.8462 7.3012 21.9487 7.3012 22.0625C7.3012 22.1877 7.25301 22.3243 7.18072 22.3585C7 22.4609 7.03614 22.6659 7.21686 22.5748C7.28915 22.5292 7.24096 22.6203 7.09638 22.7683C6.9518 22.9163 6.80723 23.1895 6.77109 23.383C6.74699 23.5652 6.57832 23.975 6.40964 24.2938C6.24097 24.6011 6.09638 24.9313 6.09638 25.011C6.09638 25.2387 5.48192 26.8894 5.34939 27.0487C5.28915 27.1284 5.26506 27.2309 5.30121 27.2992C5.3494 27.3561 5.3012 27.4699 5.21687 27.561C5.14458 27.6407 5 27.9367 4.91566 28.2213C4.83132 28.5059 4.71084 28.9157 4.63855 29.132C4.44578 29.7468 4.39759 30.3843 4.54217 30.3843C4.61446 30.3843 4.6265 30.4298 4.59036 30.4981C4.55421 30.555 4.55422 30.7941 4.60241 31.0104C4.72289 31.6365 5.25301 32.035 5.25301 31.5113C5.25301 31.3405 5.30121 31.295 5.44579 31.3405C5.61446 31.3975 5.9759 31.1812 5.9759 31.0104C5.9759 30.9649 6.06024 30.8624 6.16868 30.76C6.26506 30.6575 6.3253 30.5095 6.28916 30.4184C6.25301 30.3274 6.26506 30.2932 6.33735 30.3274C6.44578 30.3843 7.57831 29.4963 8.07229 28.9726C8.19277 28.8474 8.3494 28.745 8.39759 28.7677C8.45783 28.7791 8.50602 28.7108 8.50602 28.6084C8.50602 28.5173 8.81927 28.0961 9.20482 27.6749C10.1205 26.6731 13.8193 23.1098 14.0723 22.9732C14.2289 22.8935 14.5301 23.1326 15.5783 24.1116C17.2289 25.6599 18.506 26.9349 18.8434 27.3561C18.9879 27.5269 19.3373 27.9253 19.6145 28.2213C20.8313 29.5077 21.3976 30.1452 22 30.8966C22.7711 31.887 23.0723 32.126 23.3012 31.9439C23.4217 31.8642 23.4458 31.6821 23.3976 31.3975C23.3133 30.9193 23.3976 30.612 23.6145 30.612C23.6867 30.612 23.8434 30.5095 23.9639 30.3843C24.0723 30.2591 24.253 30.1566 24.3494 30.1566C24.4458 30.1566 24.5301 30.0883 24.5301 29.9972C24.5301 29.9175 24.6145 29.7809 24.7108 29.7012C24.8193 29.6102 24.8916 29.5988 24.8916 29.6785C24.8916 29.7582 25.012 29.7354 25.2289 29.6329C25.4096 29.5532 25.6145 29.4735 25.6747 29.4735C25.747 29.4735 25.9277 29.3711 26.0723 29.2686L26.3614 29.0523L26.1205 28.6311C25.9759 28.3921 25.7349 28.0505 25.5663 27.8798C25.3976 27.6976 25.1566 27.3333 25.012 27.0601C24.5181 26.1152 24.3735 25.8876 24.2048 25.7965C24.1205 25.7509 24.0482 25.6371 24.0482 25.5574C24.0482 25.3639 23.6988 24.6922 23.4699 24.4304C23.3735 24.3279 23.3253 24.2369 23.3735 24.2369C23.4096 24.2369 23.3614 24.0661 23.241 23.8612C23.1325 23.6677 23.0482 23.4627 23.0602 23.4058C23.0723 23.3603 23.0361 23.3261 22.9639 23.3261C22.9036 23.3261 22.8434 23.2123 22.8434 23.0643C22.8434 22.9277 22.6988 22.6089 22.5422 22.3585C22.3735 22.108 22.241 21.8348 22.241 21.7551C22.241 21.6754 22.1084 21.425 21.9398 21.1859C21.7831 20.9582 21.5904 20.5029 21.5181 20.1955C21.3614 19.5125 21.1807 19.1368 20.8434 18.8294C20.5663 18.579 20.5542 18.2488 20.8072 17.5885C20.9036 17.3381 21.012 17.2243 21.1205 17.2584C21.3494 17.3381 21.8795 17.0649 21.8795 16.8827C21.8795 16.803 21.988 16.6778 22.1325 16.6095C22.2651 16.5298 22.3494 16.4046 22.3133 16.3249C22.2771 16.2338 22.4458 16.0517 22.7229 15.8809C23.0482 15.6874 23.2048 15.6305 23.241 15.7329C23.2771 15.824 23.3855 15.7899 23.5542 15.6191C23.6867 15.4825 23.8072 15.3345 23.8072 15.3003C23.8072 15.1979 24.506 14.6628 24.6145 14.6742C24.6627 14.6856 24.747 14.5831 24.7952 14.4465C24.8675 14.2644 24.9639 14.2075 25.1325 14.253C25.2771 14.2872 25.4337 14.2302 25.5301 14.1278C25.6024 14.0139 25.759 13.9229 25.8554 13.9001C25.9518 13.8773 26.0602 13.809 26.0723 13.7521C26.0964 13.6952 26.1928 13.6496 26.2892 13.6496C26.4819 13.6496 26.5181 13.4561 26.3253 13.3992C26.253 13.3764 26.4819 13.1829 26.8434 12.9666C27.1928 12.7503 27.5542 12.5112 27.6506 12.4202C27.747 12.3405 27.9157 12.2949 28.0361 12.3177C28.1687 12.3519 28.2771 12.3291 28.2771 12.2722C28.2892 12.2152 28.3012 12.1242 28.3133 12.0786C28.3133 12.0217 28.4217 11.8965 28.5422 11.7827C28.7349 11.6005 28.747 11.6005 28.747 11.7827C28.747 11.942 28.7831 11.942 28.9277 11.8282C29.0361 11.7485 29.0843 11.6005 29.0482 11.5094C28.9759 11.3159 29.1807 11.1451 29.4699 11.1565C29.5904 11.1565 29.5783 11.1907 29.4217 11.2476C29.2771 11.2931 29.241 11.3614 29.3133 11.407C29.5181 11.5322 29.9518 11.0882 29.9518 10.7581C29.9518 10.5304 30.0482 10.4279 30.3735 10.3027C30.6024 10.2116 30.8313 10.0523 30.8675 9.94981C30.9036 9.85874 30.988 9.77905 31.0361 9.77905C31.241 9.77905 32 9.03908 32 8.84555C32 8.60648 31.3735 8.27635 31.1084 8.36742C31 8.40157 30.8916 8.36742 30.8554 8.28773C30.8072 8.17389 30.6024 8.13974 30.2169 8.15112C29.9036 8.15112 29.6506 8.17389 29.6506 8.18527C29.6506 8.19666 29.241 8.21943 28.747 8.25358C28.253 8.27635 27.3855 8.34465 26.8193 8.41296C26.253 8.46988 24.3373 8.54957 22.5422 8.5951C20.759 8.62925 18.8916 8.67479 18.4096 8.68617C17.8916 8.69756 17.4458 8.65202 17.3373 8.58372C17.2048 8.49264 17.1325 8.21942 17.1084 7.75268C17.0964 7.36562 17 6.94441 16.9157 6.79641C16.8313 6.64842 16.7831 6.48904 16.7952 6.43212C16.8193 6.38659 16.759 6.27274 16.6867 6.18167C16.6145 6.0906 16.5904 6.02229 16.6506 6.02229C16.7108 6.02229 16.6747 5.96537 16.5663 5.90845C16.4337 5.84015 16.3855 5.70354 16.4337 5.51001C16.4578 5.35063 16.4337 5.22541 16.3735 5.22541C16.2048 5.22541 16.2771 4.41714 16.4578 4.31468C16.5783 4.24637 16.5663 4.21222 16.4458 4.17807C16.3133 4.13253 16.3133 4.05284 16.494 3.76824C16.6024 3.58609 16.6988 3.34703 16.6988 3.24457C16.6988 3.14212 16.747 3.06243 16.7952 3.06243C16.9036 3.06243 16.9157 2.98274 16.9518 2.4363C16.9639 2.28831 17.012 2.17447 17.0602 2.20862C17.2048 2.29969 17.4096 1.99232 17.6024 1.40035C17.7952 0.774221 17.7108 0.603459 17.241 0.7173C16.8795 0.808373 16.4217 1.20682 16.5181 1.35481C16.5542 1.41173 16.4699 1.51419 16.3253 1.58249C16.1928 1.66218 16.1084 1.74187 16.1446 1.77602C16.241 1.86709 15.9518 2.10616 15.6506 2.17446C15.3735 2.24277 15.1928 2.02647 15.3855 1.84433C15.4458 1.78741 15.4217 1.61664 15.3133 1.4345C15.2169 1.25235 15.1446 1.07021 15.1687 1.01329C15.1928 0.922215 14.506 -0.0112808 14.4096 0.000103263C14.3735 0.000103263 14.0843 0.113943 13.747 0.261936ZM16.0361 6.93302C16.0723 6.98994 16.0482 7.04686 15.988 7.04686C15.9157 7.04686 15.8554 6.98994 15.8554 6.93302C15.8554 6.86472 15.8795 6.81918 15.9036 6.81918C15.9398 6.81918 16 6.86472 16.0361 6.93302ZM27.241 10.2344C27.2771 10.2913 27.253 10.3483 27.1928 10.3483C27.1205 10.3483 27.0602 10.4166 27.0602 10.5076C27.0602 10.5987 26.9277 10.7012 26.759 10.7353C26.5904 10.7808 26.4699 10.8719 26.494 10.9402C26.506 11.0199 26.4578 11.0768 26.3735 11.0882C26.3012 11.0882 26.2048 11.1224 26.1566 11.1679C25.988 11.3159 25.759 11.1338 25.8313 10.8947C25.9036 10.6329 25.759 10.667 25.3374 11.0085C25.2289 11.0996 25.0964 11.1451 25.0482 11.111C25.012 11.0655 25.0361 11.0313 25.1084 11.0313C25.1807 11.0313 25.2169 10.9516 25.1807 10.8605C25.1325 10.7467 25.1807 10.6898 25.3133 10.6898C25.4217 10.6898 25.6145 10.5759 25.747 10.4279C25.9277 10.2344 25.9639 10.2116 25.9759 10.3596C25.9759 10.5646 26.6145 10.7467 26.6747 10.5646C26.6988 10.5076 26.7711 10.4849 26.8313 10.5304C26.8916 10.5646 26.9398 10.4849 26.9398 10.3596C26.9398 10.1092 27.1084 10.0409 27.241 10.2344ZM24.7108 10.4621C24.747 10.519 24.7108 10.5418 24.6145 10.5076C24.5181 10.4735 24.4096 10.5418 24.3614 10.6556C24.3133 10.7581 24.3133 10.815 24.3614 10.7695C24.4096 10.7239 24.506 10.8036 24.5783 10.9402C24.7831 11.3273 25.0843 11.4525 25.3735 11.2817C25.6386 11.1338 25.9157 11.2021 25.7952 11.3842C25.747 11.4411 25.7952 11.4867 25.8795 11.4867C25.9639 11.4867 25.8795 11.5777 25.6747 11.703C25.4819 11.8168 25.1446 12.0559 24.9398 12.238C24.5181 12.6023 23.8554 13.0804 23.759 13.0804C23.6868 13.0804 23.3976 13.2967 22.7831 13.8204C22.1566 14.3441 21.8434 14.5604 21.6747 14.5604C21.5904 14.5604 21.5181 14.6628 21.5181 14.7881C21.5181 14.9133 21.4578 15.0157 21.3735 15.0157C21.3012 15.0157 20.9759 15.1751 20.6506 15.3686C20.3253 15.5736 19.8916 15.7443 19.6747 15.7671C19.4578 15.7785 19.3614 15.7671 19.4458 15.7329C19.6506 15.6532 19.6265 15.3686 19.4096 15.289C19.2892 15.2434 19.253 15.141 19.2892 15.0157C19.3253 14.9019 19.3133 14.7767 19.241 14.7425C19.1807 14.7084 19.1566 14.5718 19.1928 14.4465C19.253 14.2302 19.0723 14.1164 18.9518 14.2985C18.9277 14.3555 18.9277 14.3213 18.9398 14.2416C18.9639 14.1733 18.8916 14.105 18.7711 14.0936C18.6265 14.0936 18.6626 14.0595 18.8675 13.9798C19.0361 13.9115 19.1084 13.8318 19.0361 13.7863C18.9759 13.7407 18.8434 13.4789 18.747 13.1943C18.6626 12.9097 18.5422 12.6251 18.494 12.5682C18.3735 12.3974 18.3012 11.6005 18.4096 11.5891C18.4578 11.5777 18.5663 11.555 18.6265 11.5436C18.6988 11.5322 18.9518 11.498 19.2048 11.4867L19.6506 11.4639L19.2289 11.3614C19 11.3159 18.7108 11.2931 18.6024 11.3273C18.4578 11.3728 18.3855 11.3273 18.3855 11.2134C18.3855 11.111 18.4458 11.0313 18.506 11.0313C18.6747 11.0313 18.6506 10.6101 18.4819 10.5418C18.3735 10.4962 18.3614 10.4735 18.4699 10.4735C18.5422 10.4621 18.6867 10.5304 18.7711 10.6215C18.9398 10.7808 19.7108 10.7467 19.7108 10.5759C19.7108 10.519 19.8193 10.5076 19.9518 10.5418C20.0843 10.5759 20.1928 10.6442 20.1928 10.7012C20.1928 10.7581 20.3133 10.8036 20.4699 10.8036C20.7229 10.7922 20.7349 10.7922 20.506 10.6329C20.3735 10.5418 20.3253 10.4621 20.3976 10.4621C20.4819 10.4621 20.5783 10.5076 20.6145 10.5759C20.6506 10.6329 20.988 10.6898 21.3494 10.6898C21.7831 10.6898 22 10.7353 22 10.8264C22 10.9288 22.0482 10.9175 22.1325 10.8036C22.2289 10.667 22.241 10.6784 22.2169 10.8605C22.1928 10.9971 22.0964 11.0768 21.9759 11.0541C21.8675 11.0427 21.747 11.0768 21.6988 11.1451C21.6626 11.2021 21.5663 11.259 21.506 11.259C21.4337 11.259 21.4217 11.2021 21.4578 11.1451C21.494 11.0768 21.4217 11.0313 21.2892 11.0313C21.1446 11.0313 21.0361 10.9744 21.0361 10.9175C21.0361 10.8492 20.9518 10.8036 20.8434 10.8036C20.7349 10.8036 20.6988 10.8605 20.747 10.9402C20.8072 11.0313 20.7229 11.0427 20.4578 10.9971C20.1446 10.9402 20.0964 10.963 20.1084 11.1338C20.1205 11.259 20.1928 11.3273 20.2771 11.2931C20.3614 11.259 20.4337 11.2931 20.4337 11.3614C20.4337 11.4297 20.494 11.4867 20.5663 11.4867C20.6265 11.4867 20.6506 11.4297 20.6145 11.3728C20.4819 11.1793 20.8193 11.2476 21 11.4525C21.0964 11.5664 21.1446 11.5891 21.0964 11.5094C21.0602 11.4411 21.0843 11.3728 21.1446 11.3728C21.2169 11.3728 21.2771 11.407 21.2771 11.4525C21.2771 11.5094 21.4578 11.5322 21.6747 11.5322C22.3012 11.5094 22.3614 11.4867 22.3373 11.3842C22.3133 11.3273 22.3614 11.2817 22.4217 11.2817C22.494 11.2817 22.5301 11.3273 22.5181 11.3842C22.494 11.4411 22.5904 11.4867 22.7229 11.4867C22.8554 11.4867 22.9639 11.4297 22.9639 11.3728C22.9639 11.3045 23.0241 11.259 23.0964 11.259C23.1566 11.259 23.1928 11.3045 23.1566 11.3501C23.1205 11.407 23.4217 11.4525 23.8193 11.4639C24.2048 11.4753 24.5301 11.4297 24.5301 11.3728C24.5301 11.2134 23.8193 10.8947 23.6265 10.963C23.4217 11.0313 23.1446 10.7353 23.3133 10.6442C23.3735 10.5987 23.4578 10.6215 23.506 10.6898C23.5422 10.7467 23.6627 10.8036 23.759 10.8036C23.8554 10.8036 23.9036 10.7467 23.8675 10.6898C23.8313 10.6215 23.9157 10.5304 24.0723 10.4735C24.4458 10.3255 24.6265 10.3255 24.7108 10.4621ZM7.10843 10.7012C7.0241 10.8378 7.40964 11.0541 7.60241 10.9858C7.69879 10.9516 7.78313 10.9744 7.78313 11.0313C7.78313 11.0996 7.73494 11.1451 7.66265 11.1451C7.60241 11.1451 7.54217 11.1907 7.54217 11.259C7.54217 11.3159 7.6747 11.3728 7.84337 11.3728C8.04819 11.3728 8.12048 11.3273 8.07229 11.2134C7.98795 11.0085 8.71084 10.6442 8.79518 10.8492C8.83133 10.9288 8.89157 10.9175 8.9759 10.8036C9.04819 10.7125 9.10843 10.6784 9.10843 10.7353C9.10843 10.7922 9.19277 10.7695 9.28915 10.6898C9.44578 10.5646 9.50602 10.5759 9.63856 10.7467C9.78313 10.9288 9.80723 10.9288 10.1687 10.7581C10.3855 10.6556 10.5542 10.6215 10.5542 10.6784C10.5542 10.7353 10.4217 10.815 10.253 10.8492C10.0482 10.8947 9.9759 10.9744 10.0361 11.111C10.0964 11.2476 10.0723 11.2704 9.95181 11.2021C9.83132 11.1338 9.80723 11.1565 9.86747 11.2931C9.90361 11.3956 9.87952 11.4867 9.79518 11.5208C9.71084 11.5436 9.84337 11.5664 10.0723 11.5664C10.3012 11.5664 10.5301 11.5094 10.5783 11.4411C10.6386 11.3501 10.6747 11.3614 10.6747 11.4525C10.6747 11.5436 10.8313 11.6005 11.0361 11.6005H11.3976L11.3373 12.1925C11.3012 12.5226 11.2169 12.8186 11.1566 12.83C11.0843 12.8528 11 13.0691 10.9639 13.3195C10.9157 13.5586 10.8434 13.7635 10.7831 13.7635C10.7229 13.7635 10.6867 13.7976 10.6867 13.8432C10.6988 13.9001 10.6626 14.0936 10.6145 14.2758C10.5422 14.5831 10.4819 14.6287 10.1446 14.6173C9.71085 14.6173 9.3494 14.401 9.3494 14.1505C9.3494 14.0595 9.26506 13.9912 9.16867 13.9912C9.07229 13.9912 8.98795 13.9342 8.98795 13.8773C8.98795 13.809 8.91566 13.7635 8.81928 13.7635C8.68675 13.7635 8.25301 13.4789 7.51807 12.9097C7.40963 12.83 7.3012 12.7731 7.2771 12.8072C7.24096 12.83 7.01205 12.6592 6.74699 12.4202C6.49398 12.1811 6.18072 11.9534 6.06024 11.9079C5.95181 11.8737 5.85542 11.7599 5.85542 11.6574C5.85542 11.5664 5.78313 11.4753 5.71084 11.4753C5.6265 11.4639 5.72289 11.4297 5.91566 11.3842C6.15662 11.3273 6.44578 11.3728 6.75903 11.498C7.02409 11.6119 7.25301 11.6802 7.2771 11.6574C7.39759 11.5436 7.15662 11.0313 7 11.0313C6.90361 11.0313 6.81927 10.963 6.81927 10.8719C6.81927 10.7809 6.74698 10.6898 6.67469 10.6556C6.59036 10.6329 6.66265 10.6101 6.84337 10.6215C7.01205 10.6215 7.13253 10.667 7.10843 10.7012ZM7.72289 10.6898C7.68674 10.7467 7.56627 10.8036 7.46988 10.8036C7.37349 10.8036 7.3253 10.7467 7.36144 10.6898C7.39759 10.6215 7.51807 10.5759 7.61446 10.5759C7.71085 10.5759 7.75903 10.6215 7.72289 10.6898ZM8.44578 10.6898C8.48193 10.7467 8.45783 10.8036 8.39759 10.8036C8.3253 10.8036 8.26506 10.7467 8.26506 10.6898C8.26506 10.6215 8.28916 10.5759 8.31325 10.5759C8.3494 10.5759 8.40964 10.6215 8.44578 10.6898ZM11.8193 10.6898C11.8675 10.7581 11.8072 10.7695 11.6747 10.7239C11.4819 10.6556 11.4819 10.667 11.6265 10.8378C11.7108 10.9402 11.7349 11.0313 11.6627 11.0313C11.6024 11.0313 11.5663 11.1338 11.6024 11.259C11.6506 11.4525 11.6024 11.4867 11.3253 11.4867C11.0964 11.4867 11.0241 11.4525 11.1325 11.3956C11.2169 11.3387 11.253 11.2134 11.2048 11.111C11.1687 10.9971 11.1928 10.9175 11.2771 10.9175C11.3494 10.9175 11.3855 10.8719 11.3494 10.815C11.3012 10.7581 11.3494 10.6784 11.4217 10.6556C11.6627 10.5645 11.7349 10.5646 11.8193 10.6898ZM22.494 10.8378C22.3735 10.9402 22.3614 10.9288 22.4337 10.7695C22.4699 10.6556 22.5422 10.5987 22.5783 10.6329C22.6145 10.667 22.5783 10.7581 22.494 10.8378ZM23.0361 10.8833C22.9157 10.9971 22.8072 10.8264 22.9157 10.6784C22.988 10.5532 23.012 10.5532 23.0602 10.6784C23.0843 10.7581 23.0723 10.8492 23.0361 10.8833ZM5.3253 10.7922C5.38554 10.8492 5.54217 10.9175 5.6747 10.9402C5.87952 10.9744 5.86747 11.0085 5.53012 11.1793C5.22891 11.3273 5.15663 11.3387 5.20482 11.2134C5.24097 11.1224 5.15662 11.0313 4.98795 10.9858C4.75903 10.9288 4.74699 10.8947 4.89156 10.8036C5.12048 10.667 5.18072 10.667 5.3253 10.7922ZM10.9759 10.9175C10.9759 10.9971 10.9036 11.0882 10.8313 11.111C10.7349 11.1451 10.6747 11.0655 10.6747 10.9175C10.6747 10.7695 10.7349 10.6898 10.8313 10.7125C10.9036 10.7467 10.9759 10.8378 10.9759 10.9175ZM14.1687 10.8605C14.1687 10.9516 14.0843 11.0313 13.9759 11.0313C13.8072 11.0313 13.8072 10.9971 13.9277 10.8605C14.012 10.7695 14.0964 10.6898 14.1205 10.6898C14.1446 10.6898 14.1687 10.7695 14.1687 10.8605ZM24.9879 10.8264C24.9639 10.8947 24.8675 10.9858 24.7952 11.0085C24.7108 11.0313 24.6747 10.9858 24.7229 10.8719C24.8072 10.667 25.0602 10.6215 24.9879 10.8264ZM6.26506 10.9061C6.30121 10.963 6.25301 11.0655 6.15662 11.1451C6 11.259 5.9759 11.2476 5.9759 11.0427C5.9759 10.8036 6.14458 10.7239 6.26506 10.9061ZM6.61445 10.9744C6.57831 11.0768 6.51807 11.1338 6.49397 11.0996C6.45783 11.0655 6.46988 10.9971 6.51807 10.9288C6.6265 10.7467 6.69879 10.7809 6.61445 10.9744ZM10.5542 11.0313C10.5542 11.0882 10.4578 11.1451 10.3494 11.1451C10.1687 11.1451 10.1566 11.1224 10.3133 11.0313C10.5422 10.8947 10.5542 10.8947 10.5542 11.0313ZM14.3855 12.1128C14.5542 12.7048 14.7229 13.3878 14.8313 13.8773C14.8675 14.0367 14.9518 14.2872 15.012 14.4465C15.0602 14.6059 15.2289 15.1182 15.3614 15.5849C15.506 16.0517 15.747 16.8258 15.9157 17.2926C16.253 18.2374 16.2892 18.6017 16.0723 18.7383C15.7108 18.9433 15.4699 18.8522 14.7831 18.2033C14.3735 17.8276 14.012 17.5202 13.9518 17.5202C13.8916 17.5202 13.6988 17.3722 13.506 17.1787C13.3133 16.9966 13.1446 16.86 13.1084 16.8827C13.0843 16.9169 12.9639 16.8372 12.8313 16.712C12.7108 16.5981 12.5301 16.4957 12.4458 16.4957C12.3614 16.4957 12.241 16.3818 12.1807 16.2338C12.1084 16.0972 11.9759 15.9948 11.8916 16.0175C11.8072 16.0289 11.7711 15.9948 11.8072 15.9378C11.8554 15.8809 11.8313 15.8012 11.7711 15.7557C11.6265 15.676 12.012 15.0157 12.2048 15.0157C12.3012 15.0157 12.3133 14.9133 12.241 14.6856C12.1687 14.4351 12.1807 14.3327 12.3133 14.2872C12.4096 14.253 12.4819 14.1619 12.4699 14.0822C12.4578 14.0026 12.506 13.7863 12.5783 13.6155C12.6626 13.4333 12.6867 13.2398 12.6506 13.1715C12.6145 13.1146 12.6747 12.9894 12.7952 12.9097C13 12.7617 13 12.7275 12.8434 12.6251C12.6867 12.534 12.6988 12.5112 12.8795 12.5112C13.1325 12.5112 13.3494 12.0559 13.1928 11.8851C13.0723 11.7599 13.7349 11.4867 14.0482 11.5208C14.1566 11.5322 14.2892 11.7827 14.3855 12.1128ZM3.9759 13.2512C3.92771 13.4447 3.95181 13.5358 4.06024 13.5358C4.26506 13.5358 4.13253 13.6496 3.85542 13.6952C3.72289 13.7179 3.51807 13.6383 3.39759 13.5244C3.24498 13.3802 3.27711 13.3081 3.49398 13.3081C3.66265 13.3081 3.84338 13.2284 3.87952 13.1374C4 12.8641 4.06024 12.9438 3.9759 13.2512ZM5.57831 14.845C5.57831 15.0385 5.42169 15.0727 5.3253 14.9133C5.27711 14.8564 5.3253 14.7767 5.39759 14.7539C5.48193 14.7197 5.55422 14.6856 5.56627 14.6856C5.56627 14.6742 5.57831 14.7539 5.57831 14.845ZM5.07229 15.0157C5.10843 15.0727 5.08434 15.1296 5.0241 15.1296C4.95181 15.1296 4.89156 15.0727 4.89156 15.0157C4.89156 14.9474 4.91566 14.9019 4.93976 14.9019C4.9759 14.9019 5.03614 14.9474 5.07229 15.0157ZM21.6506 16.9852C21.494 17.1332 21.3373 17.0193 21.4578 16.8486C21.494 16.7803 21.5904 16.7575 21.6627 16.7917C21.7349 16.8372 21.7349 16.9055 21.6506 16.9852ZM11.6386 20.4915C12.1687 20.9582 12.6024 21.3795 12.6024 21.425C12.6024 21.4591 12.4819 21.6185 12.3373 21.7779C12.1807 21.9259 12.012 22.1194 11.9398 22.1877C11.8795 22.256 11.3373 22.7455 10.759 23.2692C10.0723 23.884 9.72289 24.271 9.78313 24.3621C9.83133 24.4418 9.81927 24.4759 9.74698 24.4304C9.6747 24.3849 9.43374 24.5442 9.21687 24.7719C8.75904 25.2728 8.27711 25.4322 8.53012 24.9996C8.6747 24.7378 8.6988 24.6467 8.75904 24.0092C8.77109 23.7929 8.84337 23.5424 8.90361 23.4627C8.9759 23.3717 8.96386 23.2578 8.85542 23.1326C8.71084 22.9618 8.71084 22.9505 8.89157 23.0188C9.18072 23.1212 9.27711 22.9277 9.03615 22.7114C8.92771 22.6089 8.90361 22.5292 8.98795 22.5292C9.06024 22.5292 9.09638 22.4837 9.04819 22.4268C9.01205 22.3699 9.03614 22.2902 9.10843 22.2446C9.27711 22.1422 9.26506 21.869 9.08433 21.812C9 21.7893 9.02409 21.7779 9.14457 21.8007C9.38554 21.8348 9.74699 21.5388 9.63856 21.3795C9.60241 21.3111 9.66265 21.1404 9.77108 20.981C9.87952 20.833 9.9759 20.537 9.98795 20.3321C10.012 19.9223 10.253 19.5921 10.506 19.6149C10.5904 19.6149 11.1084 20.0134 11.6386 20.4915ZM8.50602 23.0415C8.43373 23.1326 8.40964 23.2692 8.45783 23.3489C8.51807 23.4627 8.50603 23.4627 8.39759 23.3717C8.24097 23.2351 8.33735 22.8708 8.53012 22.8708C8.60241 22.8708 8.59036 22.9391 8.50602 23.0415Z" fill="#FC8BA8"/>
<path fill-rule="evenodd" clip-rule="evenodd" d="M9.01196 11.0655C8.92762 11.1566 8.92762 11.2704 8.98786 11.3729C9.06015 11.464 9.10835 11.5209 9.12039 11.4867C9.12039 11.4526 9.14449 11.316 9.18063 11.168C9.22883 10.8834 9.19268 10.8492 9.01196 11.0655Z" fill="#FC8BA8"/>
<path fill-rule="evenodd" clip-rule="evenodd" d="M8.32533 11.3729C8.36148 11.4298 8.42172 11.4867 8.45787 11.4867C8.48196 11.4867 8.50605 11.4298 8.50605 11.3729C8.50605 11.3046 8.44582 11.259 8.37353 11.259C8.31329 11.259 8.28919 11.3046 8.32533 11.3729Z" fill="#FC8BA8"/>
<path fill-rule="evenodd" clip-rule="evenodd" d="M6.15652 11.6004C6.48182 11.737 6.57821 11.737 6.57821 11.6004C6.57821 11.5321 6.43363 11.4866 6.25291 11.498C5.9517 11.498 5.93965 11.5093 6.15652 11.6004Z" fill="#FC8BA8"/>
<path fill-rule="evenodd" clip-rule="evenodd" d="M27.2409 12.8527C27.2048 12.9097 27.2168 12.9666 27.2891 12.9666C27.3494 12.9666 27.4457 12.9097 27.4819 12.8527C27.518 12.7844 27.506 12.7389 27.4337 12.7389C27.3735 12.7389 27.2771 12.7844 27.2409 12.8527Z" fill="#FC8BA8"/>
<path fill-rule="evenodd" clip-rule="evenodd" d="M24.3615 14.9701C24.229 15.0498 24.1446 15.1523 24.1808 15.175C24.2049 15.1978 24.3374 15.1523 24.4579 15.0612C24.5904 14.9815 24.6747 14.879 24.6386 14.8563C24.6145 14.8335 24.482 14.879 24.3615 14.9701Z" fill="#FC8BA8"/>
<path d="M23.0843 16.0403C23.1509 16.0403 23.2048 15.9893 23.2048 15.9265C23.2048 15.8636 23.1509 15.8126 23.0843 15.8126C23.0178 15.8126 22.9639 15.8636 22.9639 15.9265C22.9639 15.9893 23.0178 16.0403 23.0843 16.0403Z" fill="#FC8BA8"/>
</svg>
