<svg width="32" height="32" viewBox="0 0 32 32" fill="none" xmlns="http://www.w3.org/2000/svg">
<rect x="0.25" y="0.25" width="31.5" height="31.5" rx="15.75" fill="white"/>
<g clip-path="url(#clip0_74_3078)">
<path d="M23.9687 9.68464C23.9557 9.62556 23.9273 9.57095 23.8865 9.52635C23.8456 9.48175 23.7937 9.44873 23.736 9.43064C23.5258 9.38901 23.3082 9.40443 23.106 9.47531C23.106 9.47531 9.08667 14.5146 8.286 15.0726C8.114 15.1926 8.056 15.2626 8.02733 15.3446C7.88867 15.7446 8.32 15.9166 8.32 15.9166L11.9333 17.094C11.9944 17.1049 12.0573 17.1013 12.1167 17.0833C12.938 16.564 20.3833 11.8606 20.816 11.7026C20.8827 11.6826 20.934 11.7026 20.9207 11.7526C20.7487 12.356 14.3147 18.0713 14.2793 18.106C14.2621 18.1201 14.2487 18.1383 14.2403 18.1589C14.2319 18.1795 14.2289 18.2019 14.2313 18.224L13.894 21.752C13.894 21.752 13.7527 22.85 14.8507 21.752C15.6293 20.9726 16.3767 20.3273 16.75 20.0133C17.9927 20.8713 19.3293 21.82 19.906 22.3166C20.003 22.4105 20.1179 22.4839 20.2439 22.5324C20.3699 22.5808 20.5044 22.6034 20.6393 22.5986C20.8055 22.5784 20.9615 22.508 21.0867 22.3969C21.2118 22.2858 21.3002 22.1392 21.34 21.9766C21.34 21.9766 23.8933 11.6946 23.9787 10.3173C23.9873 10.184 23.9987 10.096 24 10.0033C24.0041 9.89615 23.9936 9.78893 23.9687 9.68464Z" fill="#D97708"/>
</g>
<rect x="0.25" y="0.25" width="31.5" height="31.5" rx="15.75" stroke="#D97708" stroke-width="0.5"/>
<defs>
<clipPath id="clip0_74_3078">
<rect width="16" height="16" fill="white" transform="translate(8 8)"/>
</clipPath>
</defs>
</svg>
