<svg width="32" height="32" viewBox="0 0 32 32" fill="none" xmlns="http://www.w3.org/2000/svg">
<rect x="0.25" y="0.25" width="31.5" height="31.5" rx="15.75" fill="white"/>
<g clip-path="url(#clip0_74_3083)">
<path d="M21.6 10.3C20.1 8.8 18.2 8 16 8C11.7 8 8.1 11.6 8.1 15.9C8.1 17.3 8.5 18.7 9.2 19.9L8 24L12.2 22.9C13.4 23.5 14.7 23.9 16 23.9C20.4 23.9 23.9 20.3 23.9 16C24 13.8 23.1 11.8 21.6 10.3ZM19.9 18.8C19.7 19.3 18.9 19.7 18.6 19.7C18.3 19.8 17.3 19.7 16.2 19.2C14.2 18.3 12.9 16.3 12.8 16.2C12.7 16.1 12 15.1 12 14.2C12 13.3 12.5 12.7 12.7 12.5C13.1 12.1 13.9 12.2 14.1 12.6C14.2 13 14.6 14 14.7 14.1C14.8 14.2 14.8 14.6 14.5 14.8C14.4 14.8 13.9 15.2 14.1 15.5C14.2 15.7 14.6 16.3 15.2 16.9C16 17.6 16.6 17.8 16.8 17.9C17 18 17.1 18 17.2 17.8C17.3 17.7 17.7 17.2 17.8 17C17.9 16.8 18.1 16.8 18.2 16.9C18.3 17 19.4 17.4 19.6 17.5C19.8 17.7 20 17.7 20 17.8C20.1 17.9 20.1 18.3 19.9 18.8Z" fill="#DB2877"/>
</g>
<rect x="0.25" y="0.25" width="31.5" height="31.5" rx="15.75" stroke="#DB2877" stroke-width="0.5"/>
<defs>
<clipPath id="clip0_74_3083">
<rect width="16" height="16" fill="white" transform="translate(8 8)"/>
</clipPath>
</defs>
</svg>
